<svg xmlns="http://www.w3.org/2000/svg" width="160.053" height="37.629" viewBox="0 0 42.347 9.956">
  <path d="M2.398 9.956q-.72 0-1.1-.466-.381-.465-.381-1.227V3.96H0V2.9h.917V1.206h1.2V2.9h1.636V3.96H2.396v4.374q0 .31.155.438.156.127.48.127h1.002v1.058zM5.235 2.9h1.129v.381q.465-.38 1.129-.38h1.03v1.128H7.351q-.465 0-.691.31-.226.311-.226.608v5.009h-1.2zM11.98 9.956q-1.242 0-1.82-.522-.579-.536-.579-1.736V5.158q0-1.213.522-1.735.522-.523 1.736-.523h.38q1.003 0 1.51.565.523.55.523 1.623v1.834H10.78v1.058q0 .438.269.678.268.24.79.24h1.961v1.058zm1.1-4.092V4.805q0-.366-.24-.606t-.606-.24h-.536q-.508 0-.72.24-.198.225-.198.677v.988zM16.298 2.9h1.129v.34q.437-.34 1.129-.34h.084q1.284 0 1.835.65.522-.65 1.453-.65h.085q1.143 0 1.693.537.565.536.565 1.721v4.798h-1.2V4.627q0-.423-.254-.663-.24-.254-.663-.254h-.367q-.437 0-.663.268-.212.254-.24.55v5.179h-1.2V4.627q0-.423-.24-.663-.24-.254-.663-.254h-.366q-.452 0-.692.24-.226.225-.226.494v5.263h-1.2zM31.298 7.698q0 1.186-.593 1.722-.578.536-1.806.536h-.183q-1.228 0-1.82-.536-.58-.536-.58-1.722V5.158q0-1.185.58-1.721.592-.537 1.82-.537h.183q1.228 0 1.806.537.593.536.593 1.721zm-1.2-2.822q0-.437-.268-.677t-.79-.24h-.466q-.522 0-.79.24t-.268.677v3.104q0 .438.268.678t.79.24h.466q.522 0 .79-.24t.268-.678zM42.347 7.698q0 1.186-.593 1.722-.578.536-1.806.536h-.183q-1.228 0-1.82-.536-.58-.536-.58-1.722V5.158q0-1.185.58-1.721.592-.537 1.82-.537h.183q1.228 0 1.806.537.593.536.593 1.721zm-1.2-2.822q0-.437-.268-.677t-.79-.24h-.466q-.522 0-.79.24t-.268.677v3.104q0 .438.268.678t.79.24h.466q.522 0 .79-.24t.268-.678z" fill="#222" />
  <path d="M35.979 0 32.632 1.924v1.612L35.979 1.612zM35.992 3.15l-3.347 1.924v1.613l3.347-1.924zM35.997 6.408l-3.347 1.923v1.613l3.347-1.924z" fill="#3399ff" />
</svg>
