<svg xmlns="http://www.w3.org/2000/svg" width="157.135" height="36" viewBox="0 0 41.575 9.525">
  <path d="M49.976 193.981c-1.712 0-2.256.504-2.256 2.365v2.242c0 1.78.449 2.364 2.256 2.364h1.108c1.413 0 1.861-.788 1.861-2.364v-2.242c0-1.766-.462-2.365-2.256-2.365zm-.367 1.06h1.434c.638 0 .883.408.883 1.128v2.772c0 .639-.299.965-.883.965h-1.434c-.639 0-.87-.422-.87-1.128v-2.772c0-.652.286-.965.87-.965M39.035 193.981c-1.712 0-2.255.504-2.255 2.365v2.242c0 1.78.448 2.364 2.255 2.364h1.108c1.413 0 1.861-.788 1.861-2.364v-2.242c0-1.766-.462-2.365-2.256-2.365zm-.367 1.06h1.434c.639 0 .883.408.883 1.128v2.772c0 .639-.299.965-.883.965h-1.434c-.639 0-.87-.422-.87-1.128v-2.772c0-.652.286-.965.87-.965M27.002 193.981v6.97h1.02v-4.755c0-.788.244-1.155.95-1.155h.97c.53 0 .828.34.828 1.142v4.769h1.005v-4.77c0-.801.313-1.14.843-1.14h1.09c.544 0 .816.366.816 1.14v4.77h1.019v-4.837c0-1.427-.53-2.134-1.576-2.134h-.887c-.747 0-1.29.258-1.522 1.02-.19-.694-.666-1.02-1.345-1.02h-.792c-.774 0-1.182.218-1.44.857v-.857zM22.715 193.981c-1.358 0-2.038.734-2.038 2.188v2.595c0 1.454.68 2.188 2.038 2.188h2.168v-1.046h-2.168c-.693 0-1.046-.394-1.046-1.169v-.842h4.07v-1.726c0-1.454-.68-2.188-2.052-2.188zm0 .992h.986c.706 0 1.06.394 1.06 1.169v.856h-3.092v-.856c0-.775.353-1.169 1.046-1.169M17.05 200.952v-4.756c0-.788.244-1.155.95-1.155h1.876v-1.06h-1.427c-.775 0-1.182.218-1.44.857v-.856h-.979v6.97zM14.82 200.952v-.965h-1.412c-.666 0-1.006-.42-1.006-1.223v-3.886h1.753v-.896h-1.753v-2.114H11.37v6.856c0 1.48.652 2.228 1.943 2.228z" fill="#000" transform="translate(-11.37 -191.427)" />
  <path d="M113.4 166.5v-1.588l3.175-1.587v1.587zM113.4 163.325v-1.588l3.175-1.587v1.587zM113.4 160.15v-1.588l3.175-1.587v1.587z" fill="#93c" transform="translate(-81.502 -156.975)" />
</svg>
