<svg xmlns="http://www.w3.org/2000/svg" width="153.72" height="36" viewBox="0 0 40.672 9.525">
  <path d="M122.86 164.323q0 1.143-.572 1.66-.558.517-1.742.517h-.177q-1.184 0-1.755-.517-.558-.517-.558-1.66v-2.45q0-1.142.558-1.66.571-.517 1.755-.517h.177q1.184 0 1.742.517.571.518.571 1.66zm-1.157-2.722q0-.421-.259-.653-.258-.231-.762-.231h-.449q-.503 0-.762.231-.258.232-.258.653v2.994q0 .422.258.653.259.231.762.231h.45q.503 0 .761-.23.259-.232.259-.654zM111.92 164.323q0 1.143-.572 1.66-.558.517-1.742.517h-.177q-1.184 0-1.755-.517-.558-.517-.558-1.66v-2.45q0-1.142.558-1.66.571-.517 1.755-.517h.177q1.184 0 1.742.517.571.518.571 1.66zm-1.157-2.722q0-.421-.259-.653-.258-.231-.762-.231h-.449q-.503 0-.762.231-.258.232-.258.653v2.994q0 .422.258.653.259.231.762.231h.45q.503 0 .761-.23.259-.232.259-.654zM97.455 159.696h1.089v.327q.421-.327 1.088-.327h.082q1.238 0 1.769.626.503-.626 1.401-.626h.082q1.102 0 1.633.517.544.518.544 1.66v4.627h-1.157V161.6q0-.408-.245-.64-.231-.244-.64-.244h-.353q-.422 0-.64.258-.204.245-.23.531v4.994h-1.157V161.6q0-.408-.232-.64-.231-.244-.64-.244h-.353q-.435 0-.667.231-.218.218-.218.476v5.076h-1.156ZM93.291 166.5q-1.197 0-1.755-.504-.558-.517-.558-1.673v-2.45q0-1.17.503-1.673.504-.504 1.674-.504h.367q.967 0 1.456.545.504.53.504 1.564v1.77h-3.347v1.02q0 .422.258.653.259.231.762.231h1.891v1.02zm1.062-3.946v-1.02q0-.354-.232-.586-.231-.231-.585-.231h-.517q-.49 0-.694.231-.19.218-.19.653v.953zM86.787 159.696h1.089v.368q.449-.368 1.088-.368h.993v1.089h-1.129q-.449 0-.667.3-.217.299-.217.584v4.83h-1.157zM83.617 166.5q-.695 0-1.062-.45-.367-.447-.367-1.183v-6.803h1.156v1.632h1.579v1.02h-1.579v4.22q0 .3.15.42.15.124.463.123h1.401v1.02z" fill="#222" transform="translate(-82.188 -156.975)" />
  <path d="M113.4 166.5v-1.588l3.175-1.587v1.587zM113.4 163.325v-1.588l3.175-1.587v1.587zM113.4 160.15v-1.588l3.175-1.587v1.587z" fill="#39f" transform="translate(-82.188 -156.975)" />
</svg>
